<svg width="580" height="58" viewBox="0 0 580 58" fill="none" xmlns="http://www.w3.org/2000/svg">
<path d="M37.3977 15H32.1136C31.8011 13.4801 31.2543 12.1449 30.473 10.9943C29.706 9.84375 28.7685 8.87784 27.6605 8.09659C26.5668 7.30114 25.3523 6.70455 24.017 6.30682C22.6818 5.90909 21.2898 5.71023 19.8409 5.71023C17.1989 5.71023 14.8054 6.37784 12.6605 7.71307C10.5298 9.0483 8.83239 11.0156 7.56818 13.6151C6.31818 16.2145 5.69318 19.4034 5.69318 23.1818C5.69318 26.9602 6.31818 30.1491 7.56818 32.7486C8.83239 35.348 10.5298 37.3153 12.6605 38.6506C14.8054 39.9858 17.1989 40.6534 19.8409 40.6534C21.2898 40.6534 22.6818 40.4545 24.017 40.0568C25.3523 39.6591 26.5668 39.0696 27.6605 38.2884C28.7685 37.4929 29.706 36.5199 30.473 35.3693C31.2543 34.2045 31.8011 32.8693 32.1136 31.3636H37.3977C37 33.5937 36.2756 35.5895 35.2244 37.3509C34.1733 39.1122 32.8665 40.6108 31.304 41.8466C29.7415 43.0682 27.9872 43.9986 26.0412 44.6378C24.1094 45.277 22.0426 45.5966 19.8409 45.5966C16.1193 45.5966 12.8097 44.6875 9.91193 42.8693C7.0142 41.0511 4.73438 38.4659 3.07244 35.1136C1.41051 31.7614 0.579546 27.7841 0.579546 23.1818C0.579546 18.5795 1.41051 14.6023 3.07244 11.25C4.73438 7.89773 7.0142 5.3125 9.91193 3.49432C12.8097 1.67614 16.1193 0.767044 19.8409 0.767044C22.0426 0.767044 24.1094 1.08665 26.0412 1.72585C27.9872 2.36506 29.7415 3.30256 31.304 4.53835C32.8665 5.75994 34.1733 7.25142 35.2244 9.01278C36.2756 10.7599 37 12.7557 37.3977 15ZM54.8853 45.767C52.8114 45.767 50.9293 45.3764 49.239 44.5952C47.5487 43.7997 46.2063 42.6562 45.212 41.1648C44.2177 39.6591 43.7205 37.8409 43.7205 35.7102C43.7205 33.8352 44.0898 32.3153 44.8285 31.1506C45.5671 29.9716 46.5543 29.0483 47.7901 28.3807C49.0259 27.7131 50.3896 27.2159 51.881 26.8892C53.3867 26.5483 54.8995 26.2784 56.4194 26.0795C58.408 25.8239 60.0202 25.6321 61.256 25.5043C62.506 25.3622 63.4151 25.1278 63.9833 24.8011C64.5657 24.4744 64.8569 23.9062 64.8569 23.0966V22.9261C64.8569 20.8239 64.2816 19.1903 63.131 18.0256C61.9947 16.8608 60.2688 16.2784 57.9535 16.2784C55.5529 16.2784 53.6708 16.804 52.3072 17.8551C50.9435 18.9062 49.9847 20.0284 49.4308 21.2216L44.658 19.517C45.5103 17.5284 46.6467 15.9801 48.0671 14.8722C49.5018 13.75 51.0643 12.9687 52.7546 12.5284C54.4592 12.0739 56.1353 11.8466 57.783 11.8466C58.8342 11.8466 60.0415 11.9744 61.4052 12.2301C62.783 12.4716 64.1112 12.9759 65.3896 13.7429C66.6822 14.5099 67.7546 15.6676 68.6069 17.2159C69.4592 18.7642 69.8853 20.8381 69.8853 23.4375V45H64.8569V40.5682H64.6012C64.2603 41.2784 63.6921 42.0384 62.8967 42.848C62.1012 43.6577 61.043 44.3466 59.7219 44.9148C58.4009 45.483 56.7887 45.767 54.8853 45.767ZM55.6523 41.25C57.641 41.25 59.3171 40.8594 60.6808 40.0781C62.0586 39.2969 63.0955 38.2884 63.7915 37.0526C64.5018 35.8168 64.8569 34.517 64.8569 33.1534V28.5511C64.6438 28.8068 64.1751 29.0412 63.4506 29.2543C62.7404 29.4531 61.9165 29.6307 60.979 29.7869C60.0558 29.929 59.1538 30.0568 58.2731 30.1705C57.4066 30.2699 56.7035 30.3551 56.1637 30.4261C54.8569 30.5966 53.6353 30.8736 52.4989 31.2571C51.3768 31.6264 50.4677 32.1875 49.7717 32.9403C49.0898 33.679 48.7489 34.6875 48.7489 35.9659C48.7489 37.7131 49.3952 39.0341 50.6879 39.929C51.9947 40.8097 53.6495 41.25 55.6523 41.25ZM79.0632 57.2727V12.2727H83.9212V17.4716H84.5178C84.8871 16.9034 85.3984 16.179 86.0518 15.2983C86.7195 14.4034 87.6712 13.608 88.907 12.9119C90.157 12.2017 91.8473 11.8466 93.978 11.8466C96.7337 11.8466 99.1626 12.5355 101.265 13.9134C103.367 15.2912 105.008 17.2443 106.187 19.7727C107.366 22.3011 107.955 25.2841 107.955 28.7216C107.955 32.1875 107.366 35.1918 106.187 37.7344C105.008 40.2628 103.374 42.223 101.286 43.6151C99.1982 44.9929 96.7905 45.6818 94.0632 45.6818C91.9609 45.6818 90.2777 45.3338 89.0135 44.6378C87.7493 43.9276 86.7763 43.125 86.0945 42.2301C85.4126 41.321 84.8871 40.5682 84.5178 39.9716H84.0916V57.2727H79.0632ZM84.0064 28.6364C84.0064 31.108 84.3686 33.2884 85.093 35.1776C85.8175 37.0526 86.8757 38.5227 88.2678 39.5881C89.6598 40.6392 91.3643 41.1648 93.3814 41.1648C95.4837 41.1648 97.2379 40.6108 98.6442 39.5028C100.065 38.3807 101.13 36.875 101.84 34.9858C102.565 33.0824 102.927 30.9659 102.927 28.6364C102.927 26.3352 102.572 24.2614 101.862 22.4148C101.165 20.554 100.107 19.0838 98.6868 18.0043C97.2805 16.9105 95.5121 16.3636 93.3814 16.3636C91.3359 16.3636 89.6172 16.8821 88.2251 17.919C86.8331 18.9418 85.782 20.3764 85.0717 22.223C84.3615 24.0554 84.0064 26.1932 84.0064 28.6364ZM115.626 45V12.2727H120.654V45H115.626ZM118.183 6.81818C117.202 6.81818 116.357 6.48437 115.647 5.81676C114.951 5.14915 114.603 4.34659 114.603 3.40909C114.603 2.47159 114.951 1.66903 115.647 1.00142C116.357 0.333806 117.202 0 118.183 0C119.163 0 120.001 0.333806 120.697 1.00142C121.407 1.66903 121.762 2.47159 121.762 3.40909C121.762 4.34659 121.407 5.14915 120.697 5.81676C120.001 6.48437 119.163 6.81818 118.183 6.81818ZM144.097 12.2727V16.5341H127.137V12.2727H144.097ZM132.08 4.43182H137.108V35.625C137.108 37.0455 137.314 38.1108 137.726 38.821C138.152 39.517 138.692 39.9858 139.346 40.2273C140.013 40.4545 140.716 40.5682 141.455 40.5682C142.009 40.5682 142.463 40.5398 142.819 40.483C143.174 40.4119 143.458 40.3551 143.671 40.3125L144.694 44.8295C144.353 44.9574 143.877 45.0852 143.266 45.2131C142.655 45.3551 141.881 45.4261 140.944 45.4261C139.523 45.4261 138.131 45.1207 136.767 44.5099C135.418 43.8991 134.296 42.9688 133.401 41.7188C132.52 40.4688 132.08 38.892 132.08 36.9886V4.43182ZM161.292 45.767C159.218 45.767 157.336 45.3764 155.645 44.5952C153.955 43.7997 152.613 42.6562 151.618 41.1648C150.624 39.6591 150.127 37.8409 150.127 35.7102C150.127 33.8352 150.496 32.3153 151.235 31.1506C151.973 29.9716 152.961 29.0483 154.196 28.3807C155.432 27.7131 156.796 27.2159 158.287 26.8892C159.793 26.5483 161.306 26.2784 162.826 26.0795C164.814 25.8239 166.426 25.6321 167.662 25.5043C168.912 25.3622 169.821 25.1278 170.39 24.8011C170.972 24.4744 171.263 23.9062 171.263 23.0966V22.9261C171.263 20.8239 170.688 19.1903 169.537 18.0256C168.401 16.8608 166.675 16.2784 164.36 16.2784C161.959 16.2784 160.077 16.804 158.713 17.8551C157.35 18.9062 156.391 20.0284 155.837 21.2216L151.064 19.517C151.917 17.5284 153.053 15.9801 154.473 14.8722C155.908 13.75 157.471 12.9687 159.161 12.5284C160.865 12.0739 162.542 11.8466 164.189 11.8466C165.24 11.8466 166.448 11.9744 167.811 12.2301C169.189 12.4716 170.517 12.9759 171.796 13.7429C173.088 14.5099 174.161 15.6676 175.013 17.2159C175.865 18.7642 176.292 20.8381 176.292 23.4375V45H171.263V40.5682H171.007C170.667 41.2784 170.098 42.0384 169.303 42.848C168.507 43.6577 167.449 44.3466 166.128 44.9148C164.807 45.483 163.195 45.767 161.292 45.767ZM162.059 41.25C164.047 41.25 165.723 40.8594 167.087 40.0781C168.465 39.2969 169.502 38.2884 170.198 37.0526C170.908 35.8168 171.263 34.517 171.263 33.1534V28.5511C171.05 28.8068 170.581 29.0412 169.857 29.2543C169.147 29.4531 168.323 29.6307 167.385 29.7869C166.462 29.929 165.56 30.0568 164.679 30.1705C163.813 30.2699 163.11 30.3551 162.57 30.4261C161.263 30.5966 160.042 30.8736 158.905 31.2571C157.783 31.6264 156.874 32.1875 156.178 32.9403C155.496 33.679 155.155 34.6875 155.155 35.9659C155.155 37.7131 155.801 39.0341 157.094 39.929C158.401 40.8097 160.056 41.25 162.059 41.25ZM190.498 1.36364V45H185.469V1.36364H190.498ZM228.941 45.6818C226.213 45.6818 223.806 44.9929 221.718 43.6151C219.63 42.223 217.996 40.2628 216.817 37.7344C215.638 35.1918 215.049 32.1875 215.049 28.7216C215.049 25.2841 215.638 22.3011 216.817 19.7727C217.996 17.2443 219.637 15.2912 221.739 13.9134C223.841 12.5355 226.27 11.8466 229.026 11.8466C231.157 11.8466 232.84 12.2017 234.076 12.9119C235.326 13.608 236.277 14.4034 236.931 15.2983C237.598 16.179 238.117 16.9034 238.486 17.4716H238.912V1.36364H243.941V45H239.083V39.9716H238.486C238.117 40.5682 237.591 41.321 236.909 42.2301C236.228 43.125 235.255 43.9276 233.99 44.6378C232.726 45.3338 231.043 45.6818 228.941 45.6818ZM229.623 41.1648C231.64 41.1648 233.344 40.6392 234.736 39.5881C236.128 38.5227 237.186 37.0526 237.911 35.1776C238.635 33.2884 238.998 31.108 238.998 28.6364C238.998 26.1932 238.642 24.0554 237.932 22.223C237.222 20.3764 236.171 18.9418 234.779 17.919C233.387 16.8821 231.668 16.3636 229.623 16.3636C227.492 16.3636 225.716 16.9105 224.296 18.0043C222.89 19.0838 221.831 20.554 221.121 22.4148C220.425 24.2614 220.077 26.3352 220.077 28.6364C220.077 30.9659 220.432 33.0824 221.142 34.9858C221.867 36.875 222.932 38.3807 224.338 39.5028C225.759 40.6108 227.52 41.1648 229.623 41.1648ZM267.57 45.6818C264.417 45.6818 261.696 44.9858 259.409 43.5938C257.137 42.1875 255.382 40.2273 254.147 37.7131C252.925 35.1847 252.314 32.2443 252.314 28.892C252.314 25.5398 252.925 22.5852 254.147 20.0284C255.382 17.4574 257.101 15.4545 259.303 14.0199C261.519 12.571 264.104 11.8466 267.059 11.8466C268.763 11.8466 270.446 12.1307 272.108 12.6989C273.77 13.267 275.283 14.1903 276.647 15.4688C278.01 16.733 279.097 18.4091 279.907 20.4972C280.716 22.5852 281.121 25.1562 281.121 28.2102V30.3409H255.894V25.9943H276.007C276.007 24.1477 275.638 22.5 274.9 21.0511C274.175 19.6023 273.138 18.4588 271.789 17.6207C270.453 16.7827 268.877 16.3636 267.059 16.3636C265.056 16.3636 263.323 16.8608 261.86 17.8551C260.411 18.8352 259.296 20.1136 258.515 21.6903C257.733 23.267 257.343 24.9574 257.343 26.7614V29.6591C257.343 32.1307 257.769 34.2259 258.621 35.9446C259.488 37.6491 260.688 38.9489 262.222 39.8438C263.756 40.7244 265.539 41.1648 267.57 41.1648C268.891 41.1648 270.084 40.9801 271.15 40.6108C272.229 40.2273 273.159 39.6591 273.941 38.9062C274.722 38.1392 275.326 37.1875 275.752 36.0511L280.61 37.4148C280.098 39.0625 279.239 40.5114 278.032 41.7614C276.824 42.9972 275.333 43.9631 273.557 44.6591C271.782 45.3409 269.786 45.6818 267.57 45.6818ZM306.327 45V1.36364H321.583C324.623 1.36364 327.13 1.8892 329.104 2.94034C331.078 3.97727 332.549 5.37642 333.515 7.13778C334.48 8.88494 334.963 10.8239 334.963 12.9545C334.963 14.8295 334.63 16.3778 333.962 17.5994C333.309 18.821 332.442 19.7869 331.363 20.4972C330.297 21.2074 329.14 21.733 327.89 22.0739V22.5C329.225 22.5852 330.567 23.054 331.917 23.9062C333.266 24.7585 334.395 25.9801 335.304 27.571C336.213 29.1619 336.668 31.108 336.668 33.4091C336.668 35.5966 336.171 37.5639 335.176 39.3111C334.182 41.0582 332.613 42.4432 330.468 43.4659C328.323 44.4886 325.532 45 322.094 45H306.327ZM311.611 40.3125H322.094C325.546 40.3125 327.996 39.6449 329.445 38.3097C330.908 36.9602 331.64 35.3267 331.64 33.4091C331.64 31.9318 331.263 30.5682 330.51 29.3182C329.757 28.054 328.685 27.0455 327.293 26.2926C325.901 25.5256 324.253 25.142 322.35 25.142H311.611V40.3125ZM311.611 20.5398H321.412C323.003 20.5398 324.438 20.2273 325.716 19.6023C327.009 18.9773 328.032 18.0966 328.784 16.9602C329.551 15.8239 329.935 14.4886 329.935 12.9545C329.935 11.0369 329.267 9.41051 327.932 8.07528C326.597 6.72585 324.48 6.05114 321.583 6.05114H311.611V20.5398ZM365.294 31.6193V12.2727H370.322V45H365.294V39.4602H364.953C364.186 41.1222 362.993 42.5355 361.373 43.7003C359.754 44.8509 357.708 45.4261 355.237 45.4261C353.191 45.4261 351.373 44.9787 349.782 44.0838C348.191 43.1747 346.941 41.8111 346.032 39.9929C345.123 38.1605 344.669 35.8523 344.669 33.0682V12.2727H349.697V32.7273C349.697 35.1136 350.365 37.017 351.7 38.4375C353.049 39.858 354.768 40.5682 356.856 40.5682C358.106 40.5682 359.377 40.2486 360.67 39.6094C361.977 38.9702 363.071 37.9901 363.951 36.669C364.846 35.348 365.294 33.6648 365.294 31.6193ZM402.714 19.6023L398.197 20.8807C397.913 20.1278 397.494 19.3963 396.94 18.6861C396.4 17.9616 395.661 17.3651 394.724 16.8963C393.786 16.4276 392.586 16.1932 391.123 16.1932C389.12 16.1932 387.451 16.6548 386.116 17.5781C384.795 18.4872 384.134 19.6449 384.134 21.0511C384.134 22.3011 384.589 23.2884 385.498 24.0128C386.407 24.7372 387.827 25.3409 389.759 25.8239L394.617 27.017C397.543 27.7273 399.724 28.8139 401.158 30.277C402.593 31.7259 403.31 33.5937 403.31 35.8807C403.31 37.7557 402.771 39.4318 401.691 40.9091C400.626 42.3864 399.134 43.5511 397.217 44.4034C395.299 45.2557 393.069 45.6818 390.526 45.6818C387.188 45.6818 384.425 44.9574 382.238 43.5085C380.05 42.0597 378.665 39.9432 378.083 37.1591L382.856 35.9659C383.31 37.7273 384.17 39.0483 385.434 39.929C386.712 40.8097 388.381 41.25 390.441 41.25C392.785 41.25 394.646 40.7528 396.023 39.7585C397.415 38.75 398.112 37.5426 398.112 36.1364C398.112 35 397.714 34.0483 396.918 33.2812C396.123 32.5 394.901 31.9176 393.254 31.5341L387.799 30.2557C384.802 29.5455 382.6 28.4446 381.194 26.9531C379.802 25.4474 379.106 23.5653 379.106 21.3068C379.106 19.4602 379.624 17.8267 380.661 16.4062C381.712 14.9858 383.14 13.8707 384.944 13.0611C386.762 12.2514 388.822 11.8466 391.123 11.8466C394.362 11.8466 396.904 12.5568 398.751 13.9773C400.612 15.3977 401.933 17.2727 402.714 19.6023ZM433.209 57.2727V39.9716H432.783C432.414 40.5682 431.888 41.321 431.206 42.2301C430.525 43.125 429.551 43.9276 428.287 44.6378C427.023 45.3338 425.34 45.6818 423.238 45.6818C420.51 45.6818 418.103 44.9929 416.015 43.6151C413.926 42.223 412.293 40.2628 411.114 37.7344C409.935 35.1918 409.346 32.1875 409.346 28.7216C409.346 25.2841 409.935 22.3011 411.114 19.7727C412.293 17.2443 413.934 15.2912 416.036 13.9134C418.138 12.5355 420.567 11.8466 423.323 11.8466C425.453 11.8466 427.137 12.2017 428.373 12.9119C429.623 13.608 430.574 14.4034 431.228 15.2983C431.895 16.179 432.414 16.9034 432.783 17.4716H433.38V12.2727H438.238V57.2727H433.209ZM423.919 41.1648C425.936 41.1648 427.641 40.6392 429.033 39.5881C430.425 38.5227 431.483 37.0526 432.208 35.1776C432.932 33.2884 433.294 31.108 433.294 28.6364C433.294 26.1932 432.939 24.0554 432.229 22.223C431.519 20.3764 430.468 18.9418 429.076 17.919C427.684 16.8821 425.965 16.3636 423.919 16.3636C421.789 16.3636 420.013 16.9105 418.593 18.0043C417.186 19.0838 416.128 20.554 415.418 22.4148C414.722 24.2614 414.374 26.3352 414.374 28.6364C414.374 30.9659 414.729 33.0824 415.439 34.9858C416.164 36.875 417.229 38.3807 418.635 39.5028C420.056 40.6108 421.817 41.1648 423.919 41.1648ZM468.067 31.6193V12.2727H473.096V45H468.067V39.4602H467.726C466.959 41.1222 465.766 42.5355 464.147 43.7003C462.527 44.8509 460.482 45.4261 458.01 45.4261C455.965 45.4261 454.147 44.9787 452.556 44.0838C450.965 43.1747 449.715 41.8111 448.806 39.9929C447.897 38.1605 447.442 35.8523 447.442 33.0682V12.2727H452.471V32.7273C452.471 35.1136 453.138 37.017 454.473 38.4375C455.823 39.858 457.542 40.5682 459.63 40.5682C460.88 40.5682 462.151 40.2486 463.444 39.6094C464.75 38.9702 465.844 37.9901 466.725 36.669C467.62 35.348 468.067 33.6648 468.067 31.6193ZM496.027 45.6818C492.874 45.6818 490.153 44.9858 487.866 43.5938C485.594 42.1875 483.839 40.2273 482.604 37.7131C481.382 35.1847 480.771 32.2443 480.771 28.892C480.771 25.5398 481.382 22.5852 482.604 20.0284C483.839 17.4574 485.558 15.4545 487.76 14.0199C489.976 12.571 492.561 11.8466 495.516 11.8466C497.22 11.8466 498.903 12.1307 500.565 12.6989C502.227 13.267 503.74 14.1903 505.104 15.4688C506.467 16.733 507.554 18.4091 508.364 20.4972C509.173 22.5852 509.578 25.1562 509.578 28.2102V30.3409H484.351V25.9943H504.464C504.464 24.1477 504.095 22.5 503.357 21.0511C502.632 19.6023 501.595 18.4588 500.246 17.6207C498.911 16.7827 497.334 16.3636 495.516 16.3636C493.513 16.3636 491.78 16.8608 490.317 17.8551C488.868 18.8352 487.753 20.1136 486.972 21.6903C486.19 23.267 485.8 24.9574 485.8 26.7614V29.6591C485.8 32.1307 486.226 34.2259 487.078 35.9446C487.945 37.6491 489.145 38.9489 490.679 39.8438C492.213 40.7244 493.996 41.1648 496.027 41.1648C497.348 41.1648 498.541 40.9801 499.607 40.6108C500.686 40.2273 501.616 39.6591 502.398 38.9062C503.179 38.1392 503.783 37.1875 504.209 36.0511L509.067 37.4148C508.555 39.0625 507.696 40.5114 506.489 41.7614C505.281 42.9972 503.79 43.9631 502.014 44.6591C500.239 45.3409 498.243 45.6818 496.027 45.6818ZM529.585 45.6818C526.858 45.6818 524.45 44.9929 522.362 43.6151C520.274 42.223 518.641 40.2628 517.462 37.7344C516.283 35.1918 515.693 32.1875 515.693 28.7216C515.693 25.2841 516.283 22.3011 517.462 19.7727C518.641 17.2443 520.281 15.2912 522.384 13.9134C524.486 12.5355 526.915 11.8466 529.67 11.8466C531.801 11.8466 533.484 12.2017 534.72 12.9119C535.97 13.608 536.922 14.4034 537.575 15.2983C538.243 16.179 538.761 16.9034 539.131 17.4716H539.557V1.36364H544.585V45H539.727V39.9716H539.131C538.761 40.5682 538.236 41.321 537.554 42.2301C536.872 43.125 535.899 43.9276 534.635 44.6378C533.371 45.3338 531.688 45.6818 529.585 45.6818ZM530.267 41.1648C532.284 41.1648 533.989 40.6392 535.381 39.5881C536.773 38.5227 537.831 37.0526 538.555 35.1776C539.28 33.2884 539.642 31.108 539.642 28.6364C539.642 26.1932 539.287 24.0554 538.577 22.223C537.866 20.3764 536.815 18.9418 535.423 17.919C534.031 16.8821 532.313 16.3636 530.267 16.3636C528.136 16.3636 526.361 16.9105 524.94 18.0043C523.534 19.0838 522.476 20.554 521.766 22.4148C521.07 24.2614 520.722 26.3352 520.722 28.6364C520.722 30.9659 521.077 33.0824 521.787 34.9858C522.511 36.875 523.577 38.3807 524.983 39.5028C526.403 40.6108 528.165 41.1648 530.267 41.1648ZM564.124 45.767C562.05 45.767 560.168 45.3764 558.477 44.5952C556.787 43.7997 555.445 42.6562 554.45 41.1648C553.456 39.6591 552.959 37.8409 552.959 35.7102C552.959 33.8352 553.328 32.3153 554.067 31.1506C554.805 29.9716 555.793 29.0483 557.028 28.3807C558.264 27.7131 559.628 27.2159 561.119 26.8892C562.625 26.5483 564.138 26.2784 565.658 26.0795C567.646 25.8239 569.259 25.6321 570.494 25.5043C571.744 25.3622 572.653 25.1278 573.222 24.8011C573.804 24.4744 574.095 23.9062 574.095 23.0966V22.9261C574.095 20.8239 573.52 19.1903 572.369 18.0256C571.233 16.8608 569.507 16.2784 567.192 16.2784C564.791 16.2784 562.909 16.804 561.545 17.8551C560.182 18.9062 559.223 20.0284 558.669 21.2216L553.896 19.517C554.749 17.5284 555.885 15.9801 557.305 14.8722C558.74 13.75 560.303 12.9687 561.993 12.5284C563.697 12.0739 565.374 11.8466 567.021 11.8466C568.072 11.8466 569.28 11.9744 570.643 12.2301C572.021 12.4716 573.349 12.9759 574.628 13.7429C575.92 14.5099 576.993 15.6676 577.845 17.2159C578.697 18.7642 579.124 20.8381 579.124 23.4375V45H574.095V40.5682H573.839C573.499 41.2784 572.93 42.0384 572.135 42.848C571.339 43.6577 570.281 44.3466 568.96 44.9148C567.639 45.483 566.027 45.767 564.124 45.767ZM564.891 41.25C566.879 41.25 568.555 40.8594 569.919 40.0781C571.297 39.2969 572.334 38.2884 573.03 37.0526C573.74 35.8168 574.095 34.517 574.095 33.1534V28.5511C573.882 28.8068 573.413 29.0412 572.689 29.2543C571.979 29.4531 571.155 29.6307 570.217 29.7869C569.294 29.929 568.392 30.0568 567.511 30.1705C566.645 30.2699 565.942 30.3551 565.402 30.4261C564.095 30.5966 562.874 30.8736 561.737 31.2571C560.615 31.6264 559.706 32.1875 559.01 32.9403C558.328 33.679 557.987 34.6875 557.987 35.9659C557.987 37.7131 558.634 39.0341 559.926 39.929C561.233 40.8097 562.888 41.25 564.891 41.25Z" fill="#D9AA00"/>
</svg>
